<svg fill="#000000" xmlns="http://www.w3.org/2000/svg"  viewBox="0 0 128 128" width="512px" height="512px"><path d="M63.07,1.01C45.39,1.5,31,16.58,31,34.62V49c0,7.17,5.83,13,13,13h27v9.07c0,1.09-0.42,2.11-1.19,2.88l-2.93,2.93 c-3.93,3.93-3.93,10.32,0,14.24c1.59,1.59,1.59,4.17,0,5.76l-0.76,0.76c-1.7,1.7-2.64,3.96-2.64,6.37c0,2.4,0.94,4.67,2.64,6.37 c1.21,1.21,1.88,2.82,1.88,4.53c0,3.53-2.88,6.41-6.41,6.41H61c-2.21,0-4-1.79-4-4V76c0-1.66-1.34-3-3-3s-3,1.34-3,3v41.31 c0,5.51,4.49,10,10,10h0.59c6.84,0,12.41-5.57,12.41-12.41c0-3.31-1.29-6.43-3.63-8.77c-0.57-0.57-0.88-1.32-0.88-2.12 s0.31-1.56,0.88-2.12l0.76-0.76c3.93-3.93,3.93-10.32,0-14.24c-1.59-1.59-1.59-4.17,0-5.76l2.93-2.93c1.9-1.9,2.95-4.43,2.95-7.12 V62h6.9c7.13,0,12.96-5.8,13-12.92L97,34.02c0-0.01,0-0.01,0-0.02c0-8.99-3.55-17.39-9.99-23.65C80.57,4.08,72.04,0.75,63.07,1.01z M90.9,49.04c-0.02,3.84-3.16,6.96-7,6.96H44c-3.86,0-7-3.14-7-7V34.62C37,19.79,48.77,7.41,63.24,7.01C63.5,7,63.75,7,64,7 c7.08,0,13.74,2.7,18.82,7.65c5.27,5.13,8.17,12,8.17,19.34L90.9,49.04z"/><path d="M70.08,23.27H56.41c-1.66,0-3,1.34-3,3s1.34,3,3,3h13.67c1.66,0,3-1.34,3-3S71.74,23.27,70.08,23.27z"/></svg>